# xmcd
#
# Track frame offsets:
#	150
#	21088
#	43294
#	63834
#
# Disc length: 1131 seconds
# Revision: 0
# Processed by: cddbd v1.5.2PL0 Copyright (c) Steve Scherf et al.
# Submitted via: dBpowerAMP V12.0
#
DISCID=2e046904
DTITLE=Enbound - You Are Now Forever Enbound
DYEAR=2008
DGENRE=Power Metal
TTITLE0=Under A Spell
TTITLE1=Running Free
TTITLE2=Death Is Dawning
TTITLE3=Noiseless Bullet
EXTD=
EXTT0=
EXTT1=
EXTT2=
EXTT3=
PLAYORDER=
